PathFileType	4	(X/Y/Z)	 s11c0103.trc
DataRate	CameraRate	NumFrames	NumMarkers	Units	OrigDataRate	OrigDataStartFrame	OrigNumFrames
200	200	4	48	mm	200	251	2000
Frame#	Time	racr			lacr			c7			jug			rlel			rdr			llel			ldr			s2			lic			ric			lasi			rasi			rpsi			lpsi			rgt			lgt			rth1			rth2			rth3			rth4			rlfc			rmfc			rsh1			rsh2			rsh3			rsh4			rlmal			rcal			rtoe			rmt5			lth1			lth2			lth4			lth3			llfc			lmfc			llmal			lcal			lmt5			lsh1			lsh2			lsh3			lsh4			ltoe			SBIKE			LBIKE			RBIKE			
		X1	Y1	Z1	X2	Y2	Z2	X3	Y3	Z3	X4	Y4	Z4	X5	Y5	Z5	X6	Y6	Z6	X7	Y7	Z7	X8	Y8	Z8	X9	Y9	Z9	X10	Y10	Z10	X11	Y11	Z11	X12	Y12	Z12	X13	Y13	Z13	X14	Y14	Z14	X15	Y15	Z15	X16	Y16	Z16	X17	Y17	Z17	X18	Y18	Z18	X19	Y19	Z19	X20	Y20	Z20	X21	Y21	Z21	X22	Y22	Z22	X23	Y23	Z23	X24	Y24	Z24	X25	Y25	Z25	X26	Y26	Z26	X27	Y27	Z27	X28	Y28	Z28	X29	Y29	Z29	X30	Y30	Z30	X31	Y31	Z31	X32	Y32	Z32	X33	Y33	Z33	X34	Y34	Z34	X35	Y35	Z35	X36	Y36	Z36	X37	Y37	Z37	X38	Y38	Z38	X39	Y39	Z39	X40	Y40	Z40	X41	Y41	Z41	X42	Y42	Z42	X43	Y43	Z43	X44	Y44	Z44	X45	Y45	Z45	X46	Y46	Z46	X47	Y47	Z47	X48	Y48	Z48	
251	1.2550	468.388970	1397.475508	-80.908399	474.871212	1415.376250	-396.113169	396.873410	1506.653091	-235.607820	434.140488	1332.260658	-243.912399	588.167325	1154.635334	-24.113539	780.636877	923.746829	-61.895592	575.934855	1137.167280	-463.841502	798.942130	910.184965	-399.353889	-120.773677	1196.842416	-260.429727	102.594549	1211.872450	-449.557230	88.568114	1209.035076	-50.639083	131.812488	1133.978736	-417.870523	112.201972	1142.319662	-85.465696	-86.697464	1271.265969	-203.486860	-81.989961	1264.723765	-295.493539	33.083851	1075.481023	-25.784040	20.161095	1074.357201	-460.506359	152.692050	998.626774	-13.762319	239.821848	978.115872	-11.750621	303.660814	917.956234	-15.816166	257.051356	1009.284496	-23.381528	396.424146	852.146066	-22.967146	414.549753	838.786555	-153.639276	294.241990	731.365016	-29.868130	249.322967	661.496547	-59.273390	172.821842	620.022596	-70.212944	270.241577	648.988599	-90.278542	68.585069	546.420622	-97.406296	6.247373	566.196971	-150.992120	225.451170	382.224354	-136.582138	150.478673	398.856499	-70.099253	124.725298	960.402190	-467.418036	193.549729	911.064833	-454.991847	221.874793	933.672869	-446.456885	229.576086	829.304143	-443.814285	313.260378	720.047847	-411.644210	314.510864	709.925463	-284.606846	236.785440	288.439433	-411.441380	194.271161	226.544549	-376.897690	403.386898	238.128161	-439.129711	282.497419	595.653797	-438.009182	295.595592	511.165993	-427.335590	265.330353	428.167179	-426.815703	325.444854	510.113101	-403.238008	485.102514	289.393442	-368.043693	-205.260614	951.798041	-261.547336	1.381753	82.507727	-460.956837	-15.276181	81.097324	-62.372872	
252	1.2600	468.275193	1397.439271	-80.774571	474.819177	1415.355695	-396.057961	396.743889	1506.696100	-235.568521	434.025839	1332.300642	-243.863042	588.073727	1154.613357	-24.003950	780.616327	923.791121	-61.778320	575.946400	1137.199837	-463.796922	798.956248	910.201985	-399.362725	-120.821071	1196.800042	-260.638587	102.571806	1211.530802	-449.532521	88.372160	1209.568037	-50.713880	132.062390	1133.780852	-418.059398	111.853099	1142.834398	-85.714942	-86.802366	1271.340261	-203.881016	-82.016672	1264.614926	-295.751667	33.096924	1076.213225	-25.649706	19.780733	1073.773720	-460.521384	153.084222	1000.267263	-13.594525	240.381415	980.438548	-11.505040	304.745200	920.719479	-15.377129	257.368925	1011.683786	-23.242808	398.037162	855.586980	-22.357477	416.292096	842.171781	-153.028318	296.116190	734.484696	-29.440327	251.312185	664.680935	-58.935832	174.857022	623.077716	-70.040349	272.233478	652.283552	-89.935320	70.524417	549.343892	-97.371883	8.663809	569.365185	-150.576749	227.462783	385.203967	-136.534073	152.434861	401.896814	-70.037457	123.364137	958.928502	-467.584445	191.659453	908.856070	-455.081003	220.207755	931.192916	-446.564652	226.814378	826.762031	-443.737669	309.701188	717.104075	-411.493205	310.819713	706.791832	-284.473861	234.609302	285.117135	-411.484416	192.175213	223.127302	-376.825070	401.286144	235.017658	-439.177369	279.220543	592.672110	-437.905946	292.608663	508.146247	-427.259822	262.592503	425.080852	-426.829164	322.400198	507.174593	-403.116339	482.931091	286.494027	-368.130898	-205.266178	951.803348	-261.547917	1.391316	82.481948	-460.983997	-15.263464	81.098621	-62.373840	
253	1.2650	468.141732	1397.406565	-80.662583	474.781765	1415.335418	-395.975587	396.625448	1506.744221	-235.537386	433.930550	1332.347307	-243.828121	587.975918	1154.612672	-23.856732	780.584079	923.847668	-61.654408	575.955049	1137.234880	-463.726613	798.970151	910.215861	-399.324243	-120.899109	1196.792906	-260.813401	102.557864	1211.185339	-449.526831	88.123318	1209.926164	-50.776864	132.325679	1133.534890	-418.213994	111.509079	1143.495132	-85.979705	-86.998211	1271.405436	-204.163843	-82.020722	1264.555689	-296.075038	33.080519	1077.141022	-25.573947	19.410798	1073.213279	-460.534086	153.654636	1001.988085	-13.556879	240.970732	982.772304	-11.228079	305.732330	923.528006	-14.986513	257.747056	1014.117478	-23.026588	399.615024	859.002132	-21.782029	417.959066	845.636103	-152.669864	298.008971	737.652270	-29.032778	253.168660	667.880935	-58.682145	176.884716	626.153263	-69.824950	274.172999	656.244237	-89.367341	72.650988	552.381860	-97.330618	10.675435	572.457602	-150.739879	229.529769	388.097831	-136.457679	154.633881	404.781049	-69.996009	121.985908	957.485906	-467.762906	189.773053	906.719419	-455.179283	218.571489	928.829337	-446.676675	224.048452	824.249282	-443.648289	306.151328	714.210796	-411.324710	306.171903	704.171167	-284.048461	232.323649	281.882932	-411.460926	190.098108	219.840973	-376.888407	399.159482	232.027102	-439.271315	275.926827	589.646556	-437.828030	289.557895	505.291219	-427.192571	259.777151	422.063804	-426.868219	319.366049	504.412137	-403.090411	480.751314	283.651027	-368.224351	-205.267617	951.795176	-261.550329	1.390154	82.498943	-460.962079	-15.270017	81.101629	-62.373643	
254	1.2700	467.999973	1397.376444	-80.513852	474.762989	1415.308298	-395.904634	396.475297	1506.770607	-235.482421	433.836993	1332.390049	-243.769648	587.604867	1154.414214	-23.769022	780.570796	923.910865	-61.554276	575.979651	1137.253417	-463.636050	798.962305	910.219073	-399.299504	-120.955242	1196.779811	-261.028750	102.618087	1210.917770	-449.718421	87.849230	1210.234562	-50.824635	132.604328	1133.333163	-418.401132	111.128961	1144.047218	-86.247512	-86.994187	1271.471239	-204.546220	-82.016999	1264.476222	-296.401841	33.014486	1077.939203	-25.491685	19.073526	1072.697064	-460.609153	154.152848	1004.071971	-12.043567	241.537322	985.130074	-10.970625	306.749577	926.414829	-14.540507	258.083189	1016.591207	-22.851915	401.174706	862.527366	-21.225024	419.650365	848.973797	-152.061600	299.877200	740.799485	-28.632559	255.229074	671.017042	-58.393382	178.929764	629.250882	-69.626025	276.170685	659.463105	-89.072899	74.829986	555.295067	-97.267319	12.761013	575.506204	-150.819630	231.700175	391.085590	-136.418135	156.644781	407.868253	-69.905684	120.592398	956.115195	-467.942821	187.878491	904.664447	-455.311927	216.851744	926.473261	-446.794802	221.280787	821.899392	-443.602031	302.587043	711.402509	-411.216477	302.413785	701.305730	-283.909750	230.024400	278.723141	-411.480416	187.871889	216.667786	-376.890385	396.988685	229.002316	-439.312185	272.600483	586.781172	-437.798112	286.448029	502.430347	-427.125306	256.938271	419.131830	-426.889197	316.225260	501.581928	-402.934298	478.512424	280.633920	-368.250745	-205.300070	951.797352	-261.541461	1.385461	82.487922	-460.954940	-15.278537	81.091081	-62.374740	
